# xmcd
#
# Track frame offsets:
#	150
#	13460
#	26310
#	38932
#	52425
#	61745
#	77405
#	102300
#	110735
#	131745
#	144862
#	158365
#	175535
#	193190
#	206915
#	219037
#
# Disc length: 3040 seconds
#
# Revision: 0
# Processed by: cddbd v1.5.1PL0 Copyright (c) Steve Scherf et al.
# Submitted via: dBpowerAMP V4.0
#
DISCID=da0bde10
DTITLE=Various Artist - The Besst Of The Golden West
DYEAR=1900
DGENRE=Country
TTITLE0=Fess Parker-The Ballad Of Davy Crocket
TTITLE1=Johnny Horton-North To Alaska
TTITLE2=Marty Robbins-Streets Of Larado
TTITLE3=Gene Pitney-The Man Who Shot Liberty Valance
TTITLE4=Frankie Lane-Rawhide
TTITLE5=Johnny Cash-The Night They Drove Old Dixie Down
TTITLE6=Starland Orchestra-Theme From The Magnificent Seven
TTITLE7=Johnny Western-The Ballad Of Paladin
TTITLE8=Marty Robbins-El Paso
TTITLE9=Frankie Lane-Cool Water
TTITLE10=Claude King-Wolverton Mountain
TTITLE11=Johnny Cash-(ghost)Riders In The Sky
TTITLE12=Marty Robbins-Big Iron
TTITLE13=Jimmy Dean-Big Bad John
TTITLE14=Frankie Lane-High Noon(Do Not Forsake Me)
TTITLE15=Floyd Cramer-San Antonio Rose
EXTD=
EXTT0=
EXTT1=
EXTT2=
EXTT3=
EXTT4=
EXTT5=
EXTT6=
EXTT7=
EXTT8=
EXTT9=
EXTT10=
EXTT11=
EXTT12=
EXTT13=
EXTT14=
EXTT15=
PLAYORDER=
